<svg width="250" height="250" viewBox="0 0 100 101" fill="none" xmlns="http://www.w3.org/2000/svg">
<path d="M71.5044 100H28.4957L10.6824 48.6464H89.3177L71.5044 100Z" fill="#2D9EAA"/>
<path d="M11.4848 48.6464H89.3177L71.5044 100" fill="#18899B"/>
<path d="M64.7642 100H35.2358L23.1998 48.6464H76.8002L64.7642 100Z" fill="#99CCCE"/>
<path d="M24.3232 48.6464H76.8002L64.7642 100" fill="#88BCBC"/>
<path d="M55.7773 100H44.2227L39.5688 48.6464H60.4312L55.7773 100Z" fill="#18899B"/>
<path d="M54.8144 100H44.2227L39.5688 48.6464" fill="#2D9EAA"/>
<path d="M89.3177 48.6463H10.6824L16.1387 37.2523L84.0218 37.4127L89.3177 48.6463Z" fill="#0A6077"/>
<path d="M80.4912 48.6464H19.5088L15.9782 37.4128H84.0218L80.4912 48.6464Z" fill="#02445B"/>
<path d="M36.6801 35.9684C35.7173 34.0427 33.631 33.0798 31.5448 33.7217C29.4585 34.3636 28.1747 36.2894 28.4956 38.5361C26.4094 39.3385 25.1256 41.5852 25.7675 43.8319C26.4094 46.0787 28.8166 47.523 31.2238 46.7206C32.9891 46.2392 34.1125 44.7948 34.2729 43.0295C35.3963 44.3134 37.1616 44.9553 38.9269 44.4739C41.1736 43.8319 42.6179 41.4247 41.8155 39.0175C41.1736 36.6103 38.9269 35.3265 36.6801 35.9684Z" fill="#EFD27F"/>
<path d="M31.2238 46.5601C32.9891 46.0786 34.1125 44.6343 34.2729 42.869C35.3963 44.1529 37.1616 44.7948 38.9269 44.3134C41.1736 43.6714 42.6179 41.2642 41.8155 38.857C41.1736 36.6103 38.9269 35.3265 36.6801 35.8079" fill="#E2B544"/>
<path d="M34.2729 42.8691C35.3963 44.1529 37.1616 44.7948 38.9269 44.3134C41.1736 43.6715 42.6179 41.2643 41.8155 38.857C41.1736 36.6103 38.9269 35.3265 36.6801 35.8079C35.7173 33.8822 33.631 32.9193 31.5448 33.5612" fill="#E2B544"/>
<path d="M28.9771 39.499C29.2981 39.82 29.1376 40.4619 28.6562 41.2643C28.1747 41.9062 27.3723 42.3876 27.0514 42.0667C26.7304 41.7457 26.8909 41.1038 27.3723 40.3014C27.8538 39.499 28.6562 39.178 28.9771 39.499Z" fill="#FFF0B0"/>
<path d="M31.2238 34.5241C31.5448 34.6846 31.3843 35.3265 30.9029 35.9684C30.4214 36.6103 29.7795 36.9313 29.619 36.6103C29.2981 36.4499 29.4586 35.8079 29.94 35.166C30.4214 34.6846 30.9029 34.3636 31.2238 34.5241Z" fill="#FFF0B0"/>
<path d="M75.0349 4.83529C75.1954 2.74905 73.9116 0.662806 71.8253 0.181366C69.7391 -0.460555 67.6528 0.662806 66.6899 2.58857C64.4432 2.10713 62.1965 3.55145 61.5546 5.63769C60.9127 8.04489 62.357 10.2916 64.6037 10.9335C66.369 11.415 68.1343 10.7731 69.0971 9.48921C69.4181 11.094 70.5415 12.5383 72.3067 13.0198C74.7139 13.6617 77.1212 12.2174 77.6026 9.97065C78.5655 7.88441 77.2816 5.63769 75.0349 4.83529Z" fill="#EFD27F"/>
<path d="M64.7642 11.094C66.5294 11.5754 68.2947 10.9335 69.2576 9.64967C69.5786 11.2545 70.7019 12.6988 72.4672 13.1802C74.8744 13.8222 77.2816 12.3778 77.7631 10.1311C78.405 7.88439 77.1212 5.63767 75.0349 4.83527" fill="#E2B544"/>
<path d="M69.4181 9.64967C69.7391 11.2545 70.8624 12.6988 72.6277 13.1802C75.0349 13.8222 77.4421 12.3778 77.9235 10.1311C78.5654 7.88438 77.2816 5.63766 75.1954 4.83526C75.3558 2.74902 74.072 0.662776 71.9858 0.181335" fill="#E2B544"/>
<path d="M66.6899 3.71191C66.8504 4.03287 66.2085 4.67479 65.4061 4.99575C64.6037 5.31671 63.8013 5.31671 63.6408 4.83527C63.4803 4.51431 64.1223 3.87239 64.9247 3.55143C65.727 3.39095 66.5294 3.39095 66.6899 3.71191Z" fill="#FFF0B0"/>
<path d="M71.1834 0.823265C71.3438 1.14423 70.8624 1.62567 70.06 1.94663C69.4181 2.26759 68.6157 2.10711 68.4552 1.78615C68.2947 1.46519 68.7762 0.983745 69.5786 0.662785C70.381 0.502305 71.0229 0.502305 71.1834 0.823265Z" fill="#FFF0B0"/>
<path d="M47.5928 4.03286C46.7904 2.74902 45.1856 2.26758 43.7413 2.74902C42.297 3.39094 41.655 4.83526 41.976 6.27958C40.5317 6.9215 39.8897 8.68678 40.5317 10.2916C41.1736 11.8964 42.9389 12.5383 44.5437 11.8964C45.667 11.4149 46.4694 10.2916 46.4694 9.00774C47.2718 9.81014 48.7162 10.1311 49.8395 9.64966C51.4443 9.00774 52.0863 7.24246 51.4443 5.63766C50.8024 4.19334 49.0371 3.55142 47.5928 4.03286Z" fill="#EFD27F"/>
<path d="M44.5437 11.8964C45.667 11.415 46.4694 10.2916 46.4694 9.00775C47.2718 9.81015 48.7162 10.1311 49.8395 9.64967C51.4443 9.00775 52.0863 7.24247 51.4443 5.63767C50.8024 4.19335 49.1976 3.39095 47.5928 3.87239" fill="#E2B544"/>
<path d="M46.309 9.16822C47.1114 9.97062 48.5557 10.2916 49.679 9.81014C51.2838 9.16822 51.9258 7.40294 51.2838 5.79814C50.6419 4.35382 49.0371 3.55142 47.4323 4.03286C46.7904 2.74902 45.1856 2.26758 43.7413 2.74902" fill="#E2B544"/>
<path d="M42.3258 7.04767C42.0976 6.91119 41.6545 7.23217 41.336 7.76462C41.0176 8.29706 40.9444 8.83933 41.1726 8.97581C41.4008 9.11229 41.8439 8.7913 42.1624 8.25886C42.4808 7.72642 42.554 7.18415 42.3258 7.04767Z" fill="#FFF0B0"/>
<path d="M43.5808 3.55142C43.7413 3.7119 43.7413 4.19334 43.4203 4.67478C43.0993 5.15622 42.7784 5.47718 42.4574 5.3167C42.297 5.15622 42.297 4.67478 42.6179 4.19334C42.9389 3.7119 43.4203 3.39094 43.5808 3.55142Z" fill="#FFF0B0"/>
<path d="M82.5775 30.6726C82.417 29.3887 81.4541 28.2654 80.0098 28.2654C78.7259 28.2654 77.4421 29.0678 77.2816 30.3516C75.8373 30.3516 74.7139 31.475 74.5535 32.9193C74.393 34.3636 75.6768 35.6475 77.1211 35.8079C78.2445 35.8079 79.2074 35.3265 79.6888 34.3636C80.0098 35.3265 80.9727 36.1289 82.096 36.1289C83.5404 36.2894 84.8242 35.0055 84.9847 33.5612C84.9847 32.1169 84.0218 30.8331 82.5775 30.6726Z" fill="#EFD27F"/>
<path d="M77.1212 35.6474C78.2445 35.6474 79.2074 35.166 79.6888 34.2031C80.0098 35.166 80.9727 35.9684 82.096 35.9684C83.5404 36.1289 84.8242 34.845 84.9847 33.4007C85.1452 31.9564 84.0218 30.833 82.5775 30.5121" fill="#E2B544"/>
<path d="M79.6888 34.2031C80.0098 35.166 80.9727 35.9684 82.096 35.9684C83.5404 36.1289 84.8242 34.8451 84.9847 33.4007C85.1452 31.9564 84.0218 30.8331 82.5775 30.5121C82.417 29.2283 81.4541 28.1049 80.0098 28.1049" fill="#E2B544"/>
<path d="M77.2816 31.154C77.4421 31.3145 77.1212 31.7959 76.6397 32.1169C76.1583 32.4379 75.6768 32.4379 75.5164 32.2774C75.3559 32.1169 75.6768 31.6355 76.1583 31.3145C76.6397 30.9935 77.1212 30.8331 77.2816 31.154Z" fill="#FFF0B0"/>
<path d="M79.6888 28.7468C79.8493 28.9073 79.5284 29.2282 79.2074 29.5492C78.8864 29.8702 78.405 29.8702 78.2445 29.7097C78.084 29.5492 78.405 29.2282 78.726 28.9073C79.2074 28.5863 79.5284 28.5863 79.6888 28.7468Z" fill="#FFF0B0"/>
<path d="M53.5306 40.6224C53.3701 39.3385 52.4072 38.2151 50.9629 38.2151C49.679 38.2151 48.3952 39.0176 48.2347 40.3014C46.7904 40.3014 45.667 41.4248 45.5066 42.8691C45.3461 44.3134 46.6299 45.5972 48.0742 45.7577C49.1976 45.7577 50.1605 45.2763 50.6419 44.3134C50.9629 45.2763 51.9258 46.0787 53.0491 46.0787C54.4934 46.2392 55.7773 44.9553 55.9378 43.511C55.9378 42.0667 54.9749 40.7828 53.5306 40.6224Z" fill="#EFD27F"/>
<path d="M48.0742 45.5972C49.1976 45.5972 50.1605 45.1158 50.6419 44.1529C50.9629 45.1158 51.9258 45.9182 53.0491 45.9182C54.4935 46.0787 55.7773 44.7948 55.9378 43.3505C56.0983 41.9062 54.9749 40.7828 53.5306 40.4619" fill="#E2B544"/>
<path d="M50.6419 44.1529C50.9629 45.1158 51.9258 45.9182 53.0491 45.9182C54.4934 46.0787 55.7773 44.7948 55.9378 43.3505C56.0982 41.9062 54.9749 40.7828 53.5306 40.4619C53.3701 39.178 52.4072 38.0547 50.9629 38.0547" fill="#E2B544"/>
<path d="M48.2462 41.0829C48.1007 40.8603 47.622 40.9157 47.1768 41.2066C46.7316 41.4975 46.4887 41.9137 46.6341 42.1363C46.7796 42.3589 47.2583 42.3035 47.7035 42.0126C48.1487 41.7217 48.3916 41.3055 48.2462 41.0829Z" fill="#FFF0B0"/>
<path d="M50.6419 38.6966C50.8024 38.8571 50.4814 39.178 50.1605 39.499C49.8395 39.82 49.3581 39.82 49.1976 39.6595C49.0371 39.499 49.3581 39.178 49.679 38.8571C50.1605 38.5361 50.6419 38.5361 50.6419 38.6966Z" fill="#FFF0B0"/>
<path d="M76.9607 20.4018C76.8002 19.118 75.8373 17.9946 74.393 17.9946C73.1091 17.9946 71.8253 18.797 71.6648 20.0809C70.2205 20.0809 69.0971 21.2042 68.9367 22.6486C68.7762 24.0929 70.06 25.3767 71.5043 25.5372C72.6277 25.5372 73.5906 25.0558 74.072 24.0929C74.393 25.0558 75.3559 25.8582 76.4792 25.8582C77.9236 26.0186 79.2074 24.7348 79.3679 23.2905C79.5284 21.8462 78.405 20.5623 76.9607 20.4018Z" fill="#EFD27F"/>
<path d="M71.6648 25.3767C72.7882 25.3767 73.7511 24.8953 74.2325 23.9324C74.5535 24.8953 75.5163 25.6977 76.6397 25.6977C78.084 25.8582 79.3679 24.5743 79.5283 23.13C79.6888 21.6857 78.5655 20.5623 77.1211 20.2414" fill="#E2B544"/>
<path d="M74.2325 23.9324C74.5535 24.8953 75.5164 25.6977 76.6397 25.6977C78.084 25.8582 79.3679 24.5743 79.5283 23.13C79.6888 21.6857 78.5655 20.5623 77.1211 20.2414C76.9607 18.9575 75.9978 17.8342 74.5535 17.8342" fill="#E2B544"/>
<path d="M71.8253 20.8833C71.9858 21.0438 71.6648 21.5252 71.1834 21.8462C70.7019 22.1671 70.2205 22.1671 70.06 22.0067C69.8995 21.8462 70.2205 21.3647 70.7019 21.0438C71.1834 20.7228 71.6648 20.5623 71.8253 20.8833Z" fill="#FFF0B0"/>
<path d="M74.072 18.4761C74.2325 18.6366 73.9116 18.9575 73.5906 19.2785C73.2696 19.5994 72.7882 19.5994 72.6277 19.439C72.4672 19.2785 72.7882 18.9575 73.1091 18.6366C73.5906 18.3156 74.072 18.3156 74.072 18.4761Z" fill="#FFF0B0"/>
<path d="M45.8275 17.3527C45.667 16.5503 45.0251 15.7479 44.2227 15.7479C43.2598 15.7479 42.6179 16.2294 42.4574 17.1922C41.4945 17.1922 40.6921 17.9946 40.6921 18.797C40.6921 19.7599 41.3341 20.5623 42.2969 20.7228C43.0993 20.7228 43.7413 20.4018 44.0622 19.7599C44.2227 20.4018 44.8646 20.8833 45.667 20.8833C46.6299 20.8833 47.4323 20.2414 47.5928 19.2785C47.4323 18.3156 46.6299 17.5132 45.8275 17.3527Z" fill="#EFD27F"/>
<path d="M42.1365 20.7228C42.9389 20.7228 43.5808 20.4018 43.9018 19.7599C44.0622 20.4018 44.7042 20.8833 45.5066 20.8833C46.4694 20.8833 47.2718 20.2414 47.4323 19.2785C47.4323 18.3156 46.7904 17.5132 45.8275 17.3527" fill="#E2B544"/>
<path d="M43.9018 19.7599C44.0622 20.4018 44.7042 20.8833 45.5066 20.8833C46.4694 20.8833 47.2718 20.2414 47.4323 19.2785C47.4323 18.3156 46.7904 17.5132 45.8275 17.3527C45.667 16.5503 45.0251 15.7479 44.2227 15.7479" fill="#E2B544"/>
<path d="M42.2969 17.6737C42.4574 17.8342 42.1365 18.1551 41.976 18.3156C41.655 18.4761 41.3341 18.6366 41.3341 18.4761C41.1736 18.3156 41.3341 17.9946 41.655 17.8342C41.8155 17.5132 42.1365 17.5132 42.2969 17.6737Z" fill="#FFF0B0"/>
<path d="M43.9018 16.0689C44.0622 16.2294 43.9018 16.3898 43.5808 16.5503C43.2598 16.7108 43.0994 16.7108 42.9389 16.7108C42.9389 16.5503 42.9389 16.3898 43.2598 16.2294C43.5808 16.0689 43.7413 15.9084 43.9018 16.0689Z" fill="#FFF0B0"/>
<path d="M66.369 27.7839C66.2085 26.9815 65.5666 26.1791 64.7642 26.1791C63.9618 26.1791 63.1594 26.6606 62.9989 27.6235C62.036 27.6235 61.2336 28.4259 61.2336 29.2283C61.2336 30.1911 61.8755 30.9935 62.8384 31.154C63.6408 31.154 64.2827 30.8331 64.6037 30.1911C64.7642 30.8331 65.4061 31.3145 66.2085 31.3145C67.1714 31.3145 67.9738 30.6726 68.1343 29.7097C67.9738 28.5863 67.3319 27.7839 66.369 27.7839Z" fill="#EFD27F"/>
<path d="M62.8384 31.154C63.6408 31.154 64.2827 30.8331 64.6037 30.1911C64.7642 30.8331 65.4061 31.3145 66.2085 31.3145C67.1714 31.3145 67.9738 30.6726 68.1343 29.7097C68.1343 28.7468 67.4923 27.9444 66.5295 27.7839" fill="#E2B544"/>
<path d="M64.4432 30.0307C64.6037 30.6726 65.2456 31.154 66.048 31.154C67.0109 31.154 67.8133 30.5121 67.9738 29.5492C67.9738 28.5863 67.3318 27.7839 66.369 27.6234C66.2085 26.821 65.5666 26.0186 64.7642 26.0186" fill="#E2B544"/>
<path d="M62.8384 27.9444C62.9989 28.1049 62.6779 28.4259 62.5174 28.5863C62.1965 28.7468 61.8755 28.9073 61.8755 28.7468C61.715 28.5863 62.036 28.2654 62.1965 28.1049C62.5174 27.9444 62.8384 27.9444 62.8384 27.9444Z" fill="#FFF0B0"/>
<path d="M64.4432 26.5001C64.6037 26.6606 64.4432 26.8211 64.1223 26.9815C63.8013 27.142 63.6408 27.142 63.4803 27.142C63.4803 26.9815 63.4803 26.8211 63.8013 26.6606C64.1223 26.3396 64.4432 26.3396 64.4432 26.5001Z" fill="#FFF0B0"/>
<path d="M25.1256 29.0678C24.3232 27.7839 22.7184 27.142 21.4345 27.7839C19.9902 28.4259 19.3483 29.8702 19.6693 31.3145C18.2249 31.9564 17.583 33.7217 18.2249 35.3265C18.8669 36.9313 20.6321 37.5732 22.2369 36.9313C23.3603 36.4499 24.1627 35.3265 24.1627 34.0427C24.9651 34.8451 26.2489 35.166 27.5328 34.6846C29.1376 34.0427 29.7795 32.2774 29.1376 30.6726C28.3352 29.2283 26.7304 28.5863 25.1256 29.0678Z" fill="#EFD27F"/>
<path d="M22.0765 36.9313C23.1998 36.4499 24.0022 35.3265 24.0022 34.0427C24.8046 34.8451 26.0885 35.166 27.3723 34.6846C28.9771 34.0427 29.619 32.2774 28.9771 30.6726C28.3352 29.2283 26.7304 28.4259 25.1256 28.9073" fill="#E2B544"/>
<path d="M24.0022 34.2031C24.8046 35.0055 26.0885 35.3265 27.3723 34.8451C28.9771 34.2031 29.619 32.4379 28.9771 30.8331C28.3352 29.3887 26.7304 28.5863 25.1256 29.0678C24.3232 27.7839 22.7184 27.142 21.4345 27.7839" fill="#E2B544"/>
<path d="M19.9902 32.1169C20.3112 32.2774 20.1507 32.7588 19.8297 33.4008C19.5088 33.8822 19.0273 34.2032 18.8668 34.0427C18.5459 33.8822 18.7064 33.4008 19.0273 32.7588C19.1878 32.2774 19.6692 31.9564 19.9902 32.1169Z" fill="#FFF0B0"/>
<path d="M21.2741 28.5863C21.4345 28.7468 21.4345 29.2283 21.1136 29.7097C20.7926 30.1911 20.4717 30.5121 20.1507 30.3516C19.9902 30.1911 19.9902 29.7097 20.3112 29.2283C20.6321 28.7468 21.1136 28.4259 21.2741 28.5863Z" fill="#FFF0B0"/>
<path d="M51.9258 26.5001C51.4443 24.4139 49.5186 22.9695 47.2718 23.2905C45.1856 23.451 43.4203 25.2163 43.2598 27.3025C41.0131 27.6235 39.4083 29.7097 39.5688 31.9564C39.7293 34.3636 41.976 36.1289 44.3832 35.9684C46.1485 35.808 47.5928 34.5241 48.0742 33.0798C48.8766 34.5241 50.4815 35.487 52.2467 35.3265C54.6539 35.166 56.4192 32.9193 56.2587 30.5121C56.0983 28.1049 54.1725 26.5001 51.9258 26.5001Z" fill="#EFD27F"/>
<path d="M44.3832 35.9684C46.1485 35.8079 47.5928 34.5241 48.0742 33.0798C48.8766 34.5241 50.4814 35.487 52.2467 35.3265C54.6539 35.166 56.4192 32.9193 56.2587 30.5121C56.0982 28.2654 54.1725 26.5001 51.7653 26.5001" fill="#E2B544"/>
<path d="M48.0742 32.9193C48.8766 34.3636 50.4814 35.3265 52.2467 35.166C54.6539 35.0055 56.4192 32.7588 56.2587 30.3516C56.0982 28.1049 54.1725 26.3396 51.7653 26.3396C51.2838 24.2534 49.358 22.809 47.1113 23.13" fill="#E2B544"/>
<path d="M43.5808 28.4259C43.9018 28.7468 43.5808 29.3887 42.9389 30.0307C42.297 30.6726 41.4946 30.8331 41.1736 30.5121C40.8526 30.1911 41.1736 29.5492 41.976 28.9073C42.6179 28.2654 43.2598 28.1049 43.5808 28.4259Z" fill="#FFF0B0"/>
<path d="M46.7904 24.0929C47.1114 24.4139 46.7904 25.0558 46.1485 25.5372C45.5066 26.0187 44.8646 26.1791 44.7042 26.0187C44.5437 25.6977 44.7042 25.0558 45.3461 24.5743C45.988 24.0929 46.6299 23.9324 46.7904 24.0929Z" fill="#FFF0B0"/>
<path d="M63.3199 15.106C63.3199 13.0198 61.7151 11.2545 59.4683 10.9335C57.3821 10.6126 55.2959 12.0569 54.8144 13.9826C52.5677 13.8222 50.4815 15.427 50.1605 17.8342C49.8395 20.2414 51.6048 22.4881 54.012 22.809C55.7773 22.9695 57.3821 22.1671 58.345 20.7228C58.8264 22.3276 60.2707 23.6114 62.036 23.7719C64.4432 24.0929 66.6899 22.3276 67.0109 19.9204C67.0109 17.5132 65.5666 15.427 63.3199 15.106Z" fill="#EFD27F"/>
<path d="M53.8515 22.6486C55.6168 22.8091 57.2216 22.0067 58.1845 20.5623C58.6659 22.1671 60.1103 23.451 61.8755 23.6115C64.2827 23.9324 66.5295 22.1671 66.8504 19.7599C67.1714 17.5132 65.5666 15.427 63.3199 14.9455" fill="#E2B544"/>
<path d="M58.1845 20.5623C58.6659 22.1671 60.1103 23.451 61.8755 23.6114C64.2827 23.9324 66.5295 22.1671 66.8504 19.7599C67.1714 17.5132 65.5666 15.427 63.3199 14.9455C63.3199 12.8593 61.7151 11.094 59.4683 10.773" fill="#E2B544"/>
<path d="M54.6539 15.106C54.8144 15.4269 54.333 16.0689 53.5306 16.5503C52.7282 17.0317 51.9258 17.0317 51.7653 16.7108C51.6048 16.3898 52.0862 15.7479 52.8886 15.2665C53.691 14.785 54.4935 14.785 54.6539 15.106Z" fill="#FFF0B0"/>
<path d="M58.8264 11.7359C58.9869 12.0569 58.6659 12.5383 57.8635 13.0197C57.2216 13.3407 56.5797 13.3407 56.4192 13.0197C56.2587 12.6988 56.5797 12.2173 57.3821 11.7359C58.024 11.4149 58.6659 11.4149 58.8264 11.7359Z" fill="#FFF0B0"/>
<path d="M72.1463 36.9313C72.1463 34.845 70.5415 33.0798 68.2947 32.7588C66.2085 32.4378 64.1223 33.8822 63.6408 35.8079C61.3941 35.6474 59.3079 37.2522 58.9869 39.6594C58.6659 42.0667 60.4312 44.3134 62.6779 44.6343C64.4432 44.7948 66.048 43.9924 67.0109 42.5481C67.4923 44.1529 68.9367 45.4367 70.702 45.5972C73.1092 45.9182 75.3559 44.1529 75.6768 41.9062C75.8373 39.3385 74.393 37.2522 72.1463 36.9313Z" fill="#EFD27F"/>
<path d="M62.6779 44.4739C64.4432 44.6344 66.048 43.832 67.0109 42.3876C67.4923 43.9924 68.9366 45.2763 70.7019 45.4368C73.1091 45.7577 75.3559 43.9924 75.6768 41.7457C75.9978 39.499 74.393 37.4127 72.1463 36.9313" fill="#E2B544"/>
<path d="M67.0109 42.3876C67.4923 43.9924 68.9366 45.2763 70.7019 45.4368C73.1091 45.7577 75.3558 43.9924 75.6768 41.7457C75.9978 39.499 74.393 37.4127 72.1462 36.9313C72.1462 34.8451 70.5414 33.0798 68.2947 32.7588" fill="#E2B544"/>
<path d="M63.6408 36.9313C63.8013 37.2522 63.3199 37.8941 62.5175 38.3756C61.7151 38.857 60.9127 38.857 60.7522 38.5361C60.5917 38.2151 61.0731 37.5732 61.8755 37.0918C62.5175 36.6103 63.3199 36.6103 63.6408 36.9313Z" fill="#FFF0B0"/>
<path d="M67.6528 33.4007C67.8133 33.7217 67.4923 34.2031 66.6899 34.6846C66.048 35.0055 65.4061 35.166 65.2456 34.845C65.0851 34.5241 65.4061 34.0426 66.2085 33.5612C66.8504 33.2402 67.4923 33.0798 67.6528 33.4007Z" fill="#FFF0B0"/>
<path d="M34.7544 17.0318C34.7544 14.9455 33.1496 13.1802 30.9028 12.8593C28.8166 12.5383 26.7304 13.9826 26.2489 15.9084C24.0022 15.7479 21.916 17.3527 21.595 19.7599C21.274 22.1671 23.0393 24.4138 25.4465 24.7348C27.2118 24.8953 28.8166 24.0929 29.7795 22.6486C30.2609 24.2534 31.7053 25.5372 33.4705 25.6977C35.8777 26.0187 38.1245 24.2534 38.4454 22.0066C38.4454 19.5994 37.0011 17.5132 34.7544 17.0318Z" fill="#EFD27F"/>
<path d="M25.286 24.5743C27.0513 24.7348 28.6561 23.9324 29.619 22.4881C30.1004 24.0929 31.5448 25.3767 33.31 25.5372C35.7173 25.8582 37.964 24.0929 38.2849 21.8462C38.6059 19.5995 37.0011 17.5132 34.7544 17.0318" fill="#E2B544"/>
<path d="M29.619 22.4881C30.1005 24.0929 31.5448 25.3767 33.3101 25.5372C35.7173 25.8582 37.964 24.0929 38.2849 21.8462C38.6059 19.5995 37.0011 17.5132 34.7544 17.0318C34.7544 14.9455 33.1496 13.1802 30.9029 12.8593" fill="#E2B544"/>
<path d="M26.0885 17.1922C26.2489 17.5132 25.7675 18.1551 24.9651 18.6366C24.1627 19.118 23.3603 19.118 23.1998 18.797C23.0393 18.4761 23.5208 17.8342 24.3232 17.3527C25.1256 16.8713 25.928 16.7108 26.0885 17.1922Z" fill="#FFF0B0"/>
<path d="M30.2609 13.6617C30.4214 13.9826 30.1005 14.4641 29.2981 14.9455C28.6561 15.2665 28.0142 15.427 27.6933 15.106C27.5328 14.785 27.8537 14.3036 28.6561 13.8222C29.4585 13.3407 30.1005 13.3407 30.2609 13.6617Z" fill="#FFF0B0"/>
<path d="M59.9557 83.3774C57.1945 80.6163 53.5232 79.0955 49.6183 79.0955C45.7134 79.0955 42.0421 80.6162 39.2809 83.3774C38.911 83.7473 38.911 84.3469 39.2809 84.7168C39.6509 85.0867 40.2505 85.0867 40.6204 84.7168C43.0237 82.3134 46.2192 80.9898 49.6183 80.9898C53.0173 80.9898 56.2128 82.3134 58.6161 84.7168C58.8011 84.9018 59.0435 84.9942 59.286 84.9942C59.5283 84.9942 59.7708 84.9018 59.9558 84.7168C60.3256 84.3469 60.3256 83.7473 59.9557 83.3774Z" fill="black"/>
<path d="M38.807 61.1899C38.2838 61.1899 37.8599 61.614 37.8599 62.1371C37.8599 64.9172 35.5981 67.179 32.8179 67.179C32.2948 67.179 31.8708 67.6031 31.8708 68.1262C31.8708 68.6493 32.2947 69.0734 32.8179 69.0734C36.6425 69.0733 39.7541 65.9618 39.7541 62.1372C39.7542 61.614 39.3302 61.1899 38.807 61.1899Z" fill="black"/>
<path d="M66.182 67.1789C63.4018 67.1789 61.1401 64.9172 61.1401 62.137C61.1401 61.6139 60.7162 61.1898 60.1929 61.1898C59.6697 61.1898 59.2457 61.6139 59.2457 62.137C59.2457 65.9616 62.3573 69.0731 66.1819 69.0731C66.705 69.0731 67.129 68.649 67.129 68.126C67.129 67.6029 66.7052 67.1789 66.182 67.1789Z" fill="black"/>
<path d="M38.1883 68.3026C36.2561 68.3026 34.6841 69.8746 34.6841 71.8068C34.6841 73.739 36.2561 75.311 38.1883 75.311C40.1205 75.311 41.6925 73.739 41.6925 71.8068C41.6925 69.8746 40.1205 68.3026 38.1883 68.3026Z" fill="black"/>
<path d="M60.8116 68.3026C58.8794 68.3026 57.3074 69.8746 57.3074 71.8068C57.3074 73.739 58.8794 75.311 60.8116 75.311C62.7438 75.311 64.3158 73.739 64.3158 71.8068C64.3159 69.8746 62.7439 68.3026 60.8116 68.3026Z" fill="black"/>
</svg>
