<svg width="300" height="300" viewBox="0 0 300 300" fill="none" xmlns="http://www.w3.org/2000/svg">
<path d="M214.513 300H85.487L32.0471 145.939H267.953L214.513 300Z" fill="#2D9EAA"/>
<path d="M34.4543 145.939H267.953L214.513 300" fill="#18899B"/>
<path d="M194.293 300H105.708L69.5995 145.939H230.401L194.293 300Z" fill="#99CCCE"/>
<path d="M72.9695 145.939H230.401L194.292 300" fill="#88BCBC"/>
<path d="M167.332 300H132.668L118.706 145.939H181.294L167.332 300Z" fill="#18899B"/>
<path d="M164.443 300H132.668L118.706 145.939" fill="#2D9EAA"/>
<path d="M267.953 145.939H32.0471L48.4161 111.757L252.065 112.238L267.953 145.939Z" fill="#0A6077"/>
<path d="M241.474 145.939H58.5263L47.9346 112.238H252.065L241.474 145.939Z" fill="#02445B"/>
<path d="M183.701 256.67H116.299L105.708 189.269H194.293L183.701 256.67Z" fill="#EFD27F"/>
<path d="M106.67 189.269H194.293L184.664 253.782" fill="#E2B544"/>
<path d="M121.114 205.638C123.241 205.638 124.965 203.913 124.965 201.786C124.965 199.659 123.241 197.935 121.114 197.935C118.986 197.935 117.262 199.659 117.262 201.786C117.262 203.913 118.986 205.638 121.114 205.638Z" fill="#0A6077"/>
<path d="M135.557 205.638C137.684 205.638 139.408 203.913 139.408 201.786C139.408 199.659 137.684 197.935 135.557 197.935C133.43 197.935 131.705 199.659 131.705 201.786C131.705 203.913 133.43 205.638 135.557 205.638Z" fill="#0A6077"/>
<path d="M150 205.638C152.127 205.638 153.852 203.913 153.852 201.786C153.852 199.659 152.127 197.935 150 197.935C147.873 197.935 146.149 199.659 146.149 201.786C146.149 203.913 147.873 205.638 150 205.638Z" fill="#0A6077"/>
<path d="M164.443 205.638C166.57 205.638 168.295 203.913 168.295 201.786C168.295 199.659 166.57 197.935 164.443 197.935C162.316 197.935 160.592 199.659 160.592 201.786C160.592 203.913 162.316 205.638 164.443 205.638Z" fill="#0A6077"/>
<path d="M178.886 205.638C181.014 205.638 182.738 203.913 182.738 201.786C182.738 199.659 181.014 197.935 178.886 197.935C176.759 197.935 175.035 199.659 175.035 201.786C175.035 203.913 176.759 205.638 178.886 205.638Z" fill="#0A6077"/>
<path d="M127.854 247.523C127.854 249.449 126.409 250.893 124.484 250.893C122.558 250.893 121.114 249.449 121.114 247.523C121.114 245.597 122.558 244.153 124.484 244.153C126.409 244.153 127.854 245.597 127.854 247.523Z" fill="#0A6077"/>
<path d="M137.483 250.893C139.344 250.893 140.853 249.384 140.853 247.523C140.853 245.662 139.344 244.153 137.483 244.153C135.621 244.153 134.113 245.662 134.113 247.523C134.113 249.384 135.621 250.893 137.483 250.893Z" fill="#0A6077"/>
<path d="M150 250.893C151.861 250.893 153.37 249.384 153.37 247.523C153.37 245.662 151.861 244.153 150 244.153C148.139 244.153 146.63 245.662 146.63 247.523C146.63 249.384 148.139 250.893 150 250.893Z" fill="#0A6077"/>
<path d="M162.518 250.893C164.379 250.893 165.888 249.384 165.888 247.523C165.888 245.662 164.379 244.153 162.518 244.153C160.656 244.153 159.147 245.662 159.147 247.523C159.147 249.384 160.656 250.893 162.518 250.893Z" fill="#0A6077"/>
<path d="M175.516 250.893C177.378 250.893 178.887 249.384 178.887 247.523C178.887 245.662 177.378 244.153 175.516 244.153C173.655 244.153 172.146 245.662 172.146 247.523C172.146 249.384 173.655 250.893 175.516 250.893Z" fill="#0A6077"/>
<path d="M110.04 107.905C107.152 102.128 100.893 99.2393 94.6344 101.165C88.3756 103.091 84.5241 108.868 85.487 115.608C79.2283 118.015 75.3767 124.756 77.3025 131.496C79.2283 138.236 86.4499 142.569 93.6715 140.162C98.9673 138.717 102.337 134.384 102.819 129.089C106.189 132.94 111.485 134.866 116.781 133.422C123.521 131.496 127.854 124.274 125.447 117.053C123.521 109.831 116.781 105.979 110.04 107.905Z" fill="#EFD27F"/>
<path d="M93.6715 139.68C98.9674 138.236 102.337 133.903 102.819 128.607C106.189 132.459 111.485 134.384 116.781 132.94C123.521 131.014 127.854 123.793 125.447 116.571C123.521 109.831 116.781 105.979 110.04 107.424" fill="#E2B544"/>
<path d="M102.819 128.607C106.189 132.459 111.485 134.384 116.781 132.94C123.521 131.014 127.854 123.793 125.447 116.571C123.521 109.831 116.781 105.979 110.041 107.424C107.152 101.646 100.893 98.7579 94.6344 100.684" fill="#E2B544"/>
<path d="M86.9313 118.497C87.8942 119.46 87.4128 121.386 85.9684 123.793C84.5241 125.719 82.1169 127.163 81.154 126.2C80.1911 125.237 80.6726 123.311 82.1169 120.904C83.5612 118.497 85.9684 117.534 86.9313 118.497Z" fill="#FFF0B0"/>
<path d="M93.6714 103.572C94.6343 104.054 94.1529 105.979 92.7086 107.905C91.2642 109.831 89.3385 110.794 88.857 109.831C87.8941 109.35 88.3756 107.424 89.8199 105.498C91.2642 104.054 92.7086 103.091 93.6714 103.572Z" fill="#FFF0B0"/>
<path d="M225.105 14.5058C225.586 8.24711 221.735 1.98839 215.476 0.544067C209.217 -1.38169 202.958 1.98839 200.07 7.76567C193.33 6.32135 186.59 10.6543 184.664 16.913C182.738 24.1346 187.071 30.8748 193.811 32.8006C199.107 34.2449 204.403 32.3191 207.291 28.4676C208.254 33.282 211.624 37.615 216.92 39.0593C224.142 40.9851 231.363 36.6521 232.808 29.9119C235.696 23.6532 231.845 16.913 225.105 14.5058Z" fill="#EFD27F"/>
<path d="M194.292 33.282C199.588 34.7263 204.884 32.8005 207.773 28.949C208.736 33.7634 212.106 38.0964 217.402 39.5407C224.623 41.4665 231.845 37.1335 233.289 30.3933C235.215 23.6532 231.363 16.913 225.105 14.5058" fill="#E2B544"/>
<path d="M208.254 28.949C209.217 33.7634 212.587 38.0964 217.883 39.5407C225.105 41.4664 232.326 37.1335 233.771 30.3933C235.696 23.6531 231.845 16.913 225.586 14.5058C226.068 8.24705 222.216 1.98833 215.957 0.544006" fill="#E2B544"/>
<path d="M200.07 11.1357C200.551 12.0986 198.625 14.0244 196.218 14.9873C193.811 15.9502 191.404 15.9502 190.922 14.5058C190.441 13.543 192.367 11.6172 194.774 10.6543C197.181 10.1729 199.588 10.1729 200.07 11.1357Z" fill="#FFF0B0"/>
<path d="M213.55 2.4698C214.031 3.43268 212.587 4.877 210.18 5.83988C208.254 6.80276 205.847 6.32132 205.366 5.35844C204.884 4.39556 206.328 2.95124 208.736 1.98836C211.143 1.50691 213.069 1.50691 213.55 2.4698Z" fill="#FFF0B0"/>
<path d="M142.778 12.0986C140.371 8.24708 135.557 6.80276 131.224 8.24708C126.891 10.1728 124.965 14.5058 125.928 18.8388C121.595 20.7645 119.669 26.0604 121.595 30.8748C123.521 35.6892 128.817 37.6149 133.631 35.6892C137.001 34.2449 139.408 30.8748 139.408 27.0233C141.815 29.4305 146.148 30.3933 149.519 28.949C154.333 27.0233 156.259 21.7274 154.333 16.913C152.407 12.58 147.111 10.6543 142.778 12.0986Z" fill="#EFD27F"/>
<path d="M133.631 35.6892C137.001 34.2449 139.408 30.8748 139.408 27.0233C141.816 29.4305 146.149 30.3933 149.519 28.949C154.333 27.0233 156.259 21.7274 154.333 16.913C152.407 12.58 147.593 10.1728 142.778 11.6172" fill="#E2B544"/>
<path d="M138.927 27.5047C141.334 29.9119 145.667 30.8748 149.037 29.4305C153.852 27.5047 155.777 22.2089 153.852 17.3945C151.926 13.0615 147.111 10.6543 142.297 12.0986C140.371 8.24708 135.557 6.80276 131.224 8.24708" fill="#E2B544"/>
<path d="M126.977 21.143C126.293 20.7335 124.963 21.6965 124.008 23.2938C123.053 24.8911 122.833 26.5179 123.518 26.9274C124.202 27.3368 125.532 26.3739 126.487 24.7766C127.442 23.1792 127.662 21.5524 126.977 21.143Z" fill="#FFF0B0"/>
<path d="M130.742 10.6543C131.224 11.1357 131.224 12.5801 130.261 14.0244C129.298 15.4687 128.335 16.4316 127.372 15.9501C126.891 15.4687 126.891 14.0244 127.854 12.5801C128.817 11.1357 130.261 10.1728 130.742 10.6543Z" fill="#FFF0B0"/>
<path d="M247.732 92.0178C247.251 88.1662 244.362 84.7961 240.029 84.7961C236.178 84.7961 232.326 87.2033 231.845 91.0549C227.512 91.0549 224.142 94.425 223.66 98.7579C223.179 103.091 227.031 106.942 231.363 107.424C234.734 107.424 237.622 105.98 239.067 103.091C240.029 105.98 242.918 108.387 246.288 108.387C250.621 108.868 254.473 105.017 254.954 100.684C254.954 96.3507 252.065 92.4992 247.732 92.0178Z" fill="#EFD27F"/>
<path d="M231.363 106.942C234.733 106.942 237.622 105.498 239.066 102.609C240.029 105.498 242.918 107.905 246.288 107.905C250.621 108.387 254.473 104.535 254.954 100.202C255.435 95.8693 252.065 92.4992 247.732 91.5363" fill="#E2B544"/>
<path d="M239.066 102.609C240.029 105.498 242.918 107.905 246.288 107.905C250.621 108.387 254.472 104.535 254.954 100.202C255.435 95.8693 252.065 92.4992 247.732 91.5363C247.251 87.6848 244.362 84.3147 240.029 84.3147" fill="#E2B544"/>
<path d="M231.845 93.462C232.326 93.9435 231.363 95.3878 229.919 96.3507C228.475 97.3136 227.031 97.3136 226.549 96.8321C226.068 96.3507 227.031 94.9064 228.475 93.9435C229.919 92.9806 231.363 92.4992 231.845 93.462Z" fill="#FFF0B0"/>
<path d="M239.066 86.2404C239.548 86.7219 238.585 87.6847 237.622 88.6476C236.659 89.6105 235.215 89.6105 234.734 89.1291C234.252 88.6476 235.215 87.6848 236.178 86.7219C237.622 85.759 238.585 85.759 239.066 86.2404Z" fill="#FFF0B0"/>
<path d="M160.592 121.867C160.11 118.015 157.222 114.645 152.889 114.645C149.037 114.645 145.186 117.053 144.704 120.904C140.371 120.904 137.001 124.274 136.52 128.607C136.038 132.94 139.89 136.792 144.223 137.273C147.593 137.273 150.481 135.829 151.926 132.94C152.889 135.829 155.777 138.236 159.147 138.236C163.48 138.717 167.332 134.866 167.813 130.533C167.813 126.2 164.925 122.348 160.592 121.867Z" fill="#EFD27F"/>
<path d="M144.223 136.792C147.593 136.792 150.481 135.347 151.926 132.459C152.889 135.347 155.777 137.755 159.147 137.755C163.48 138.236 167.332 134.385 167.813 130.052C168.295 125.719 164.925 122.349 160.592 121.386" fill="#E2B544"/>
<path d="M151.926 132.459C152.889 135.347 155.777 137.755 159.147 137.755C163.48 138.236 167.332 134.385 167.813 130.052C168.295 125.719 164.925 122.348 160.592 121.386C160.11 117.534 157.222 114.164 152.889 114.164" fill="#E2B544"/>
<path d="M144.739 123.249C144.302 122.581 142.866 122.747 141.53 123.62C140.195 124.492 139.466 125.741 139.902 126.409C140.339 127.077 141.775 126.91 143.11 126.038C144.446 125.165 145.175 123.916 144.739 123.249Z" fill="#FFF0B0"/>
<path d="M151.926 116.09C152.407 116.571 151.444 117.534 150.482 118.497C149.519 119.46 148.074 119.46 147.593 118.978C147.111 118.497 148.074 117.534 149.037 116.571C150.482 115.608 151.926 115.608 151.926 116.09Z" fill="#FFF0B0"/>
<path d="M230.882 61.2056C230.401 57.354 227.512 53.9839 223.179 53.9839C219.327 53.9839 215.476 56.3911 214.994 60.2427C210.662 60.2427 207.291 63.6128 206.81 67.9457C206.329 72.2787 210.18 76.1302 214.513 76.6117C217.883 76.6117 220.772 75.1673 222.216 72.2787C223.179 75.1673 226.068 77.5745 229.438 77.5745C233.771 78.056 237.622 74.2044 238.104 69.8715C238.585 65.5385 235.215 61.687 230.882 61.2056Z" fill="#EFD27F"/>
<path d="M214.995 76.1302C218.365 76.1302 221.253 74.6859 222.698 71.7973C223.66 74.6859 226.549 77.0931 229.919 77.0931C234.252 77.5745 238.104 73.723 238.585 69.3901C239.067 65.0571 235.696 61.687 231.363 60.7241" fill="#E2B544"/>
<path d="M222.698 71.7972C223.66 74.6859 226.549 77.0931 229.919 77.0931C234.252 77.5745 238.104 73.723 238.585 69.39C239.066 65.0571 235.696 61.687 231.363 60.7241C230.882 56.8726 227.993 53.5025 223.66 53.5025" fill="#E2B544"/>
<path d="M215.476 62.6499C215.957 63.1313 214.994 64.5756 213.55 65.5385C212.106 66.5014 210.661 66.5014 210.18 66.0199C209.699 65.5385 210.661 64.0942 212.106 63.1313C213.55 62.1684 214.994 61.687 215.476 62.6499Z" fill="#FFF0B0"/>
<path d="M222.216 55.4282C222.697 55.9097 221.735 56.8726 220.772 57.8354C219.809 58.7983 218.365 58.7983 217.883 58.3169C217.402 57.8354 218.365 56.8726 219.327 55.9097C220.772 54.9468 222.216 54.9468 222.216 55.4282Z" fill="#FFF0B0"/>
<path d="M137.483 52.0582C137.001 49.651 135.075 47.2438 132.668 47.2438C129.779 47.2438 127.854 48.6881 127.372 51.5767C124.484 51.5767 122.076 53.9839 122.076 56.3911C122.076 59.2798 124.002 61.687 126.891 62.1684C129.298 62.1684 131.224 61.2055 132.187 59.2798C132.668 61.2055 134.594 62.6499 137.001 62.6499C139.89 62.6499 142.297 60.7241 142.778 57.8355C142.297 54.9468 139.89 52.5396 137.483 52.0582Z" fill="#EFD27F"/>
<path d="M126.409 62.1684C128.817 62.1684 130.742 61.2055 131.705 59.2798C132.187 61.2055 134.112 62.6499 136.52 62.6499C139.408 62.6499 141.816 60.7241 142.297 57.8354C142.297 54.9468 140.371 52.5396 137.483 52.0582" fill="#E2B544"/>
<path d="M131.705 59.2798C132.187 61.2055 134.113 62.6499 136.52 62.6499C139.408 62.6499 141.816 60.7241 142.297 57.8355C142.297 54.9468 140.371 52.5396 137.483 52.0582C137.001 49.651 135.075 47.2438 132.668 47.2438" fill="#E2B544"/>
<path d="M126.891 53.021C127.372 53.5024 126.409 54.4653 125.928 54.9468C124.965 55.4282 124.002 55.9096 124.002 55.4282C123.521 54.9468 124.002 53.9839 124.965 53.5025C125.447 52.5396 126.409 52.5396 126.891 53.021Z" fill="#FFF0B0"/>
<path d="M131.705 48.2066C132.187 48.6881 131.705 49.1695 130.742 49.6509C129.78 50.1324 129.298 50.1324 128.817 50.1324C128.817 49.6509 128.817 49.1695 129.78 48.6881C130.742 48.2066 131.224 47.7252 131.705 48.2066Z" fill="#FFF0B0"/>
<path d="M199.107 83.3518C198.625 80.9446 196.7 78.5374 194.292 78.5374C191.885 78.5374 189.478 79.9817 188.997 82.8703C186.108 82.8703 183.701 85.2775 183.701 87.6847C183.701 90.5734 185.627 92.9806 188.515 93.462C190.922 93.462 192.848 92.4991 193.811 90.5734C194.292 92.4991 196.218 93.9435 198.625 93.9435C201.514 93.9435 203.921 92.0177 204.403 89.1291C203.921 85.759 201.996 83.3518 199.107 83.3518Z" fill="#EFD27F"/>
<path d="M188.515 93.462C190.922 93.462 192.848 92.4991 193.811 90.5734C194.293 92.4991 196.218 93.9434 198.625 93.9434C201.514 93.9434 203.921 92.0177 204.403 89.129C204.403 86.2404 202.477 83.8332 199.588 83.3517" fill="#E2B544"/>
<path d="M193.33 90.0919C193.811 92.0177 195.737 93.462 198.144 93.462C201.033 93.462 203.44 91.5362 203.921 88.6476C203.921 85.759 201.996 83.3518 199.107 82.8703C198.625 80.4631 196.7 78.0559 194.292 78.0559" fill="#E2B544"/>
<path d="M188.515 83.8333C188.997 84.3147 188.034 85.2776 187.552 85.759C186.589 86.2405 185.627 86.7219 185.627 86.2405C185.145 85.759 186.108 84.7961 186.589 84.3147C187.552 83.8333 188.515 83.8333 188.515 83.8333Z" fill="#FFF0B0"/>
<path d="M193.33 79.5003C193.811 79.9817 193.33 80.4631 192.367 80.9446C191.404 81.426 190.922 81.426 190.441 81.426C190.441 80.9446 190.441 80.4631 191.404 79.9817C192.367 79.0188 193.33 79.0188 193.33 79.5003Z" fill="#FFF0B0"/>
<path d="M75.3768 87.2033C72.9696 83.3518 68.1552 81.426 64.3036 83.3518C59.9707 85.2776 58.0449 89.6105 59.0078 93.9435C54.6748 95.8693 52.7491 101.165 54.6748 105.98C56.6006 110.794 61.8964 112.72 66.7108 110.794C70.0809 109.35 72.4881 105.98 72.4881 102.128C74.8953 104.535 78.7469 105.498 82.5984 104.054C87.4128 102.128 89.3385 96.8321 87.4128 92.0177C85.0056 87.6848 80.1912 85.759 75.3768 87.2033Z" fill="#EFD27F"/>
<path d="M66.2294 110.794C69.5995 109.35 72.0067 105.98 72.0067 102.128C74.4139 104.535 78.2654 105.498 82.1169 104.054C86.9313 102.128 88.8571 96.8321 86.9313 92.0177C85.0055 87.6848 80.1911 85.2776 75.3767 86.7219" fill="#E2B544"/>
<path d="M72.0066 102.609C74.4138 105.017 78.2654 105.98 82.1169 104.535C86.9313 102.609 88.8571 97.3136 86.9313 92.4992C85.0055 88.1662 80.1911 85.759 75.3767 87.2033C72.9695 83.3518 68.1551 81.426 64.3036 83.3518" fill="#E2B544"/>
<path d="M59.9706 96.3506C60.9335 96.8321 60.4521 98.2764 59.4892 100.202C58.5263 101.646 57.082 102.609 56.6005 102.128C55.6377 101.646 56.1191 100.202 57.082 98.2764C57.5634 96.8321 59.0077 95.8692 59.9706 96.3506Z" fill="#FFF0B0"/>
<path d="M63.8222 85.759C64.3036 86.2404 64.3036 87.6847 63.3407 89.1291C62.3779 90.5734 61.415 91.5363 60.4521 91.0548C59.9707 90.5734 59.9707 89.129 60.9335 87.6847C61.8964 86.2404 63.3407 85.2775 63.8222 85.759Z" fill="#FFF0B0"/>
<path d="M155.777 79.5003C154.333 73.2415 148.556 68.9086 141.816 69.8714C135.557 70.3529 130.261 75.6487 129.779 81.9075C123.039 82.8703 118.225 89.1291 118.706 95.8692C119.188 103.091 125.928 108.387 133.15 107.905C138.445 107.424 142.778 103.572 144.223 99.2393C146.63 103.572 151.444 106.461 156.74 105.979C163.962 105.498 169.258 98.7579 168.776 91.5363C168.295 84.3147 162.517 79.5003 155.777 79.5003Z" fill="#EFD27F"/>
<path d="M133.15 107.905C138.445 107.424 142.778 103.572 144.223 99.2393C146.63 103.572 151.444 106.461 156.74 105.979C163.962 105.498 169.258 98.7579 168.776 91.5363C168.295 84.7961 162.517 79.5002 155.296 79.5002" fill="#E2B544"/>
<path d="M144.223 98.7579C146.63 103.091 151.444 105.979 156.74 105.498C163.962 105.017 169.258 98.2764 168.776 91.0548C168.295 84.3147 162.517 79.0188 155.296 79.0188C153.851 72.7601 148.074 68.4271 141.334 69.39" fill="#E2B544"/>
<path d="M130.742 85.2776C131.705 86.2405 130.742 88.1662 128.817 90.092C126.891 92.0177 124.484 92.4992 123.521 91.5363C122.558 90.5734 123.521 88.6477 125.928 86.7219C127.854 84.7961 129.78 84.3147 130.742 85.2776Z" fill="#FFF0B0"/>
<path d="M140.371 72.2787C141.334 73.2416 140.371 75.1673 138.445 76.6117C136.52 78.056 134.594 78.5374 134.112 78.056C133.631 77.0931 134.112 75.1673 136.038 73.723C137.964 72.2787 139.89 71.7972 140.371 72.2787Z" fill="#FFF0B0"/>
<path d="M189.96 45.318C189.96 39.0593 185.145 33.7634 178.405 32.8005C172.146 31.8377 165.888 36.1706 164.443 41.9479C157.703 41.4665 151.444 46.2809 150.481 53.5025C149.519 60.7241 154.814 67.4643 162.036 68.4271C167.332 68.9086 172.146 66.5014 175.035 62.1684C176.479 66.9828 180.812 70.8343 186.108 71.3158C193.33 72.2787 200.07 66.9828 201.033 59.7612C201.033 52.5396 196.7 46.2809 189.96 45.318Z" fill="#EFD27F"/>
<path d="M161.555 67.9457C166.85 68.4271 171.665 66.0199 174.553 61.687C175.998 66.5014 180.331 70.3529 185.627 70.8343C192.848 71.7972 199.588 66.5014 200.551 59.2798C201.514 52.5396 196.7 46.2809 189.96 44.8365" fill="#E2B544"/>
<path d="M174.553 61.687C175.998 66.5014 180.331 70.3529 185.627 70.8343C192.848 71.7972 199.588 66.5014 200.551 59.2798C201.514 52.5396 196.7 46.2809 189.96 44.8365C189.96 38.5778 185.145 33.282 178.405 32.3191" fill="#E2B544"/>
<path d="M163.962 45.318C164.443 46.2809 162.999 48.2066 160.592 49.6509C158.184 51.0953 155.777 51.0953 155.296 50.1324C154.814 49.1695 156.259 47.2437 158.666 45.7994C161.073 44.3551 163.48 44.3551 163.962 45.318Z" fill="#FFF0B0"/>
<path d="M176.479 35.2078C176.961 36.1706 175.998 37.615 173.591 39.0593C171.665 40.0222 169.739 40.0222 169.258 39.0593C168.776 38.0964 169.739 36.6521 172.146 35.2078C174.072 34.2449 175.998 34.2449 176.479 35.2078Z" fill="#FFF0B0"/>
<path d="M216.439 110.794C216.439 104.535 211.624 99.2393 204.884 98.2764C198.626 97.3136 192.367 101.647 190.922 107.424C184.182 106.942 177.924 111.757 176.961 118.978C175.998 126.2 181.294 132.94 188.034 133.903C193.33 134.384 198.144 131.977 201.033 127.644C202.477 132.459 206.81 136.31 212.106 136.792C219.327 137.755 226.068 132.459 227.031 125.719C227.512 118.016 223.179 111.757 216.439 110.794Z" fill="#EFD27F"/>
<path d="M188.034 133.422C193.33 133.903 198.144 131.496 201.033 127.163C202.477 131.977 206.81 135.829 212.106 136.31C219.327 137.273 226.068 131.977 227.03 125.237C227.993 118.497 223.179 112.238 216.439 110.794" fill="#E2B544"/>
<path d="M201.033 127.163C202.477 131.977 206.81 135.829 212.106 136.31C219.327 137.273 226.068 131.977 227.031 125.237C227.993 118.497 223.179 112.238 216.439 110.794C216.439 104.535 211.624 99.2393 204.884 98.2764" fill="#E2B544"/>
<path d="M190.922 110.794C191.404 111.757 189.96 113.683 187.552 115.127C185.145 116.571 182.738 116.571 182.257 115.608C181.775 114.645 183.219 112.72 185.627 111.275C187.552 109.831 189.96 109.831 190.922 110.794Z" fill="#FFF0B0"/>
<path d="M202.959 100.202C203.44 101.165 202.477 102.609 200.07 104.054C198.144 105.017 196.218 105.498 195.737 104.535C195.255 103.572 196.218 102.128 198.626 100.684C200.551 99.7208 202.477 99.2393 202.959 100.202Z" fill="#FFF0B0"/>
<path d="M104.263 51.0953C104.263 44.8366 99.4487 39.5407 92.7086 38.5778C86.4499 37.6149 80.1911 41.9479 78.7468 47.7252C72.0066 47.2438 65.7479 52.0582 64.785 59.2798C63.8222 66.5014 69.118 73.2416 76.3396 74.2044C81.6354 74.6859 86.4499 72.2787 89.3385 67.9457C90.7828 72.7601 95.1158 76.6116 100.412 77.0931C107.633 78.056 114.373 72.7601 115.336 66.0199C115.336 58.7983 111.003 52.5396 104.263 51.0953Z" fill="#EFD27F"/>
<path d="M75.8582 73.723C81.154 74.2044 85.9684 71.7972 88.857 67.4643C90.3014 72.2787 94.6343 76.1302 99.9302 76.6116C107.152 77.5745 113.892 72.2787 114.855 65.5385C115.818 58.7983 111.003 52.5396 104.263 51.0953" fill="#E2B544"/>
<path d="M88.8571 67.4643C90.3014 72.2787 94.6343 76.1302 99.9302 76.6116C107.152 77.5745 113.892 72.2787 114.855 65.5385C115.818 58.7983 111.003 52.5396 104.263 51.0953C104.263 44.8365 99.4487 39.5407 92.7086 38.5778" fill="#E2B544"/>
<path d="M78.2654 51.5767C78.7468 52.5396 77.3025 54.4654 74.8953 55.9097C72.4881 57.354 70.0809 57.354 69.5994 56.3911C69.118 55.4283 70.5623 53.5025 72.9695 52.0582C75.3767 50.6138 77.7839 50.1324 78.2654 51.5767Z" fill="#FFF0B0"/>
<path d="M90.7829 40.985C91.2643 41.9479 90.3014 43.3922 87.8942 44.8366C85.9685 45.7994 84.0427 46.2809 83.0798 45.318C82.5984 44.3551 83.5613 42.9108 85.9685 41.4665C88.3757 40.0222 90.3014 40.0222 90.7829 40.985Z" fill="#FFF0B0"/>
</svg>
