<svg width="35" height="
35" viewBox="0 0 126 142" fill="none" xmlns="http://www.w3.org/2000/svg">
<path d="M124.541 45.649C124.587 48.5196 123.781 51.3395 122.225 53.7519C120.668 56.1644 118.431 58.0611 115.797 59.2022C113.162 60.3433 110.248 60.6776 107.424 60.1628C104.599 59.648 101.991 58.3072 99.9287 56.3099C97.8663 54.3126 96.4424 51.7486 95.8372 48.9422C95.232 46.1357 95.4726 43.2127 96.5285 40.543C97.5845 37.8732 99.4084 35.5766 101.77 33.9434C104.131 32.3103 106.923 31.414 109.794 31.368C111.7 31.3373 113.594 31.6823 115.366 32.3834C117.139 33.0845 118.756 34.1279 120.126 35.454C121.495 36.7802 122.59 38.363 123.347 40.1123C124.105 41.8616 124.511 43.7429 124.541 45.649V45.649Z" fill="#FCE4AB"/>
<path d="M44.063 39.019C44.1201 42.5523 43.1281 46.0233 41.2125 48.9929C39.2969 51.9624 36.5438 54.2973 33.3012 55.7021C30.0586 57.107 26.4723 57.5187 22.9957 56.8853C19.5191 56.2519 16.3085 54.6017 13.7697 52.1436C11.231 49.6854 9.47819 46.5296 8.73303 43.0752C7.98787 39.6209 8.28384 36.0231 9.58343 32.7369C10.883 29.4508 13.1279 26.6238 16.0342 24.6135C18.9405 22.6031 22.3776 21.4998 25.911 21.443C30.6488 21.3668 35.2228 23.1757 38.6269 26.4718C42.031 29.7679 43.9864 34.2812 44.063 39.019Z" fill="#FCE4AB"/>
<path d="M106.041 17.578C106.098 21.1112 105.106 24.5821 103.191 27.5516C101.275 30.5211 98.5221 32.856 95.2797 34.2609C92.0372 35.6658 88.451 36.0776 84.9745 35.4444C81.498 34.8111 78.2873 33.1612 75.7485 30.7032C73.2097 28.2452 71.4567 25.0896 70.7113 21.6354C69.966 18.1811 70.2616 14.5834 71.5609 11.2973C72.8602 8.01105 75.1047 5.18392 78.0108 3.17338C80.9168 1.16284 84.3537 0.0591716 87.887 0.00194757C92.625 -0.074257 97.1992 1.73457 100.604 5.03062C104.008 8.32666 105.964 12.84 106.041 17.578V17.578Z" fill="#FCE4AB"/>
<path d="M85.687 22.9329C85.7593 27.394 84.5069 31.7762 82.0885 35.5256C79.67 39.2749 76.1941 42.2228 72.1003 43.9966C68.0064 45.7704 63.4784 46.2904 59.089 45.4907C54.6996 44.6911 50.6459 42.6078 47.4405 39.5042C44.2352 36.4007 42.0221 32.4163 41.0813 28.055C40.1404 23.6937 40.5139 19.1513 42.1547 15.0023C43.7955 10.8533 46.6297 7.28409 50.299 4.74592C53.9684 2.20775 58.308 0.814685 62.769 0.742898C68.7506 0.646909 74.5253 2.93072 78.8232 7.09203C83.121 11.2533 85.59 16.9514 85.687 22.9329V22.9329Z" fill="#FACD7B"/>
<path d="M120.003 31.76C120.068 35.7571 118.946 39.6836 116.779 43.0431C114.612 46.4025 111.498 49.0439 107.83 50.6333C104.162 52.2226 100.104 52.6886 96.1716 51.9722C92.2387 51.2557 88.6066 49.3892 85.7345 46.6084C82.8625 43.8277 80.8795 40.2578 80.0364 36.3501C79.1933 32.4423 79.528 28.3724 80.998 24.6548C82.468 20.9373 85.0075 17.7392 88.2951 15.4649C91.5828 13.1907 95.471 11.9424 99.4682 11.878C104.828 11.7916 110.002 13.8378 113.853 17.5663C117.704 21.2949 119.916 26.4004 120.003 31.76V31.76Z" fill="#F9B968"/>
<path d="M93.688 41.231C93.7378 44.3009 92.8762 47.3166 91.212 49.8967C89.5479 52.4769 87.156 54.5056 84.3388 55.7263C81.5216 56.947 78.4057 57.3049 75.3851 56.7547C72.3646 56.2044 69.575 54.7708 67.3692 52.6351C65.1634 50.4994 63.6405 47.7576 62.9931 44.7563C62.3457 41.7551 62.6028 38.6292 63.7319 35.7741C64.8611 32.919 66.8116 30.4629 69.3367 28.7163C71.8618 26.9697 74.8481 26.0112 77.918 25.962C82.0339 25.8959 86.0075 27.4674 88.9649 30.3308C91.9223 33.1942 93.6212 37.1151 93.688 41.231V41.231Z" fill="#EA8542"/>
<path d="M23.4751 50.4049C23.5115 52.6789 22.8729 54.9127 21.64 56.8238C20.407 58.7349 18.6351 60.2375 16.5482 61.1416C14.4613 62.0457 12.1532 62.3108 9.91567 61.9032C7.67817 61.4956 5.61179 60.4338 3.97774 58.8519C2.3437 57.27 1.2154 55.2391 0.735495 53.016C0.255591 50.7929 0.445665 48.4774 1.28164 46.3623C2.11761 44.2472 3.56191 42.4275 5.43203 41.1332C7.30214 39.8389 9.51404 39.1282 11.788 39.0909C14.8378 39.0428 17.7819 40.2074 19.9733 42.3289C22.1648 44.4504 23.4243 47.3552 23.4751 50.4049V50.4049Z" fill="#EA8542"/>
<path d="M73.2761 42.9C73.3261 45.9696 72.4648 48.9852 70.8009 51.5652C69.1371 54.1453 66.7455 56.174 63.9286 57.3949C61.1117 58.6157 57.9961 58.9738 54.9757 58.4239C51.9553 57.874 49.1658 56.4407 46.96 54.3054C44.7542 52.1701 43.2312 49.4286 42.5835 46.4277C41.9358 43.4267 42.1926 40.3011 43.3213 37.4461C44.45 34.5911 46.4001 32.1349 48.9248 30.3882C51.4495 28.6415 54.4354 27.6826 57.5051 27.633C61.6207 27.5669 65.5941 29.1381 68.5516 32.0011C71.5091 34.864 73.2085 38.7843 73.2761 42.9V42.9Z" fill="#FCE4AB"/>
<path d="M52.211 45.5859C52.2575 48.4567 51.4517 51.2768 49.8954 53.6897C48.3391 56.1025 46.1023 57.9997 43.4678 59.1412C40.8333 60.2828 37.9194 60.6175 35.0947 60.103C32.27 59.5885 29.6612 58.248 27.5984 56.2509C25.5355 54.2538 24.1113 51.6898 23.5056 48.8832C22.9 46.0766 23.1402 43.1534 24.1959 40.4834C25.2515 37.8133 27.0753 35.5162 29.4365 33.8826C31.7976 32.2491 34.5902 31.3523 37.461 31.3059C39.3673 31.2748 41.2609 31.6195 43.0339 32.3203C44.8068 33.0212 46.4243 34.0644 47.7941 35.3905C49.1638 36.7166 50.2588 38.2995 51.0167 40.0488C51.7746 41.7982 52.1804 43.6797 52.211 45.5859V45.5859Z" fill="#F9B968"/>
<path d="M6.2561 61.012L21.8561 133.707L106.092 132.348L119.341 59.188L6.2561 61.012Z" fill="#F39014"/>
<path d="M28.7411 60.6489L38.5411 133.437L55.3841 133.165L51.3411 60.2839L28.7411 60.6489Z" fill="#F3E5E5"/>
<path d="M6.2561 61.0119L21.8561 133.707L38.5461 133.437L28.7461 60.6489L6.2561 61.0119Z" fill="#E91919"/>
<path d="M119.341 59.188L96.5251 59.555L89.0762 132.619L106.093 132.345L119.341 59.188Z" fill="#E91919"/>
<path d="M51.3411 60.284L55.392 133.165L72.235 132.893L73.9351 59.9189L51.3411 60.284Z" fill="#E91919"/>
<path d="M73.9301 59.9189L72.2301 132.893L89.0741 132.622L96.5201 59.5559L73.9301 59.9189Z" fill="#F3E5E5"/>
<path opacity="0.4" d="M13.0741 92.7799C33.3411 82.7919 68.6851 70.2469 117.205 70.9799L119.338 59.1919L6.2561 61.0159L13.0741 92.7799Z" fill="#111111"/>
<path d="M125.326 58.1679C125.356 60.0043 124.655 61.7772 123.377 63.0967C122.1 64.4162 120.35 65.1742 118.514 65.2039L7.27611 66.9979C5.43993 67.0276 3.66712 66.3267 2.34765 65.0494C1.02817 63.7722 0.270094 62.0231 0.240102 60.1869L0.211111 58.3399C0.18143 56.5037 0.88232 54.7309 2.1596 53.4115C3.43687 52.092 5.18591 51.3339 7.02208 51.3039L118.26 49.5109C120.096 49.4812 121.869 50.1821 123.189 51.4594C124.508 52.7367 125.266 54.4857 125.296 56.3219L125.326 58.1679Z" fill="#E91919"/>
<path opacity="0.4" d="M110.676 107.03C83.2431 123.099 32.0221 125.343 20.1251 125.648L21.8561 133.707L106.092 132.347L110.676 107.03Z" fill="#111111"/>
<path d="M110.376 133.203C110.439 137.026 108.189 140.165 105.354 140.209L22.8471 141.541C20.0131 141.586 17.6631 138.524 17.6021 134.7L17.5721 132.853C17.5091 129.03 19.76 125.892 22.595 125.847L105.101 124.519C107.937 124.473 110.285 127.535 110.347 131.36L110.376 133.203Z" fill="#E91919"/>
</svg>
