<svg width="258" height="259" viewBox="0 0 258 259" fill="none" xmlns="http://www.w3.org/2000/svg">
<g id="sad-heart">
<g id="heart&#39;">
<g id="Group">
<path id="Vector" d="M190.037 6.99658C158.53 6.99658 132.515 34.9615 128.571 71.1635C124.628 34.9615 98.6132 6.99658 67.106 6.99658C32.8733 6.99658 5.12231 40.0081 5.12231 80.7301C5.12231 121.452 46.2462 163.312 64.7723 182.23C82.0803 199.903 128.571 251.953 128.571 251.953C128.571 251.953 175.063 199.903 192.37 182.23C210.897 163.312 252.02 121.452 252.02 80.7301C252.02 40.0081 224.27 6.99658 190.037 6.99658Z" fill="#E91919"/>
<path id="Vector_2" d="M128.571 258.046C127.309 258.046 126.047 257.494 125.061 256.39C124.596 255.87 78.4568 204.234 61.4356 186.853L61.2574 186.671C41.3739 166.369 0 124.122 0 80.7301C0 36.7133 30.1036 0.903198 67.1061 0.903198C94.2336 0.903198 118.098 20.3496 128.571 48.6643C139.045 20.3496 162.909 0.903198 190.037 0.903198C227.039 0.903198 257.143 36.7133 257.143 80.7301C257.143 124.122 215.769 166.368 195.886 186.671L195.707 186.853C178.685 204.234 132.546 255.87 132.082 256.39C131.096 257.494 129.834 258.046 128.571 258.046ZM67.1061 13.0899C35.7526 13.0899 10.2447 43.4331 10.2447 80.7301C10.2447 118.522 50.6689 159.798 67.9303 177.424L68.1085 177.606C82.5229 192.325 117.388 231.115 128.571 243.594C139.755 231.115 174.62 192.325 189.034 177.606L189.213 177.424C206.474 159.798 246.898 118.522 246.898 80.7301C246.898 43.4331 221.39 13.0899 190.037 13.0899C161.547 13.0899 137.307 38.3927 133.651 71.9465C133.32 74.9834 131.146 77.2568 128.571 77.2568C125.997 77.2568 123.822 74.984 123.492 71.9465C119.837 38.3927 95.5962 13.0899 67.1061 13.0899Z" fill="black"/>
</g>
<g id="Group_2">
<path id="Vector_3" d="M129.088 227.591C127.835 227.591 126.58 227.048 125.593 225.951C111.796 210.626 86.9349 183.164 75.4403 171.427L75.2846 171.268C73.3529 169.296 71.1631 167.06 68.8037 164.605C66.6744 162.389 66.4577 158.539 68.3207 156.007C70.1827 153.473 73.419 153.216 75.5484 155.432C77.8719 157.85 80.0422 160.066 81.9575 162.021L82.1132 162.18C93.1662 173.467 115.661 198.245 132.585 217.044C134.653 219.341 134.763 223.196 132.833 225.656C131.824 226.941 130.458 227.591 129.088 227.591Z" fill="black"/>
</g>
<g id="Group_3">
<path id="Vector_4" d="M58.0277 150.681C56.742 150.681 55.4557 150.11 54.4605 148.96C51.0741 145.05 47.87 141.158 44.937 137.394C43.014 134.926 43.137 131.071 45.212 128.782C47.2866 126.495 50.5275 126.641 52.451 129.11C55.2621 132.718 58.3391 136.454 61.5964 140.216C63.6264 142.56 63.6746 146.418 61.704 148.833C60.699 150.063 59.3641 150.681 58.0277 150.681Z" fill="black"/>
</g>
</g>
<g id="sad">
<path id="Vector_5" d="M130.358 141.191C145.231 141.191 158.505 149.66 164.174 162.767C165.145 165.01 164.112 167.615 161.869 168.586C159.626 169.557 157.024 168.524 156.054 166.28C151.785 156.416 141.702 150.039 130.36 150.039C118.756 150.039 108.61 156.41 104.516 166.27C103.809 167.97 102.162 168.998 100.429 169.001C99.8625 169.001 99.2887 168.892 98.7327 168.662C96.4762 167.723 95.4069 165.133 96.3434 162.878C101.814 149.701 115.164 141.191 130.358 141.191ZM94.8966 102.995C93.2713 102.887 92.0412 101.482 92.1489 99.8565C92.2566 98.2327 93.6385 96.9982 95.283 97.1088C95.4113 97.1177 108.083 97.8433 112.849 91.2713C113.804 89.9498 115.651 89.6607 116.968 90.615C118.287 91.5707 118.58 93.4158 117.624 94.7343C112.142 102.293 100.809 103.041 96.5455 103.041C95.6089 103.041 95.0146 103.004 94.8966 102.995ZM117.9 113.608C117.9 115.548 117.292 117.344 116.263 118.825C114.601 116.54 111.914 115.048 108.872 115.048C105.763 115.048 103.017 116.607 101.365 118.98C100.268 117.471 99.6117 115.618 99.6117 113.607C99.6117 108.557 103.707 104.461 108.756 104.461C113.804 104.461 117.9 108.558 117.9 113.608ZM141.376 94.6797C140.42 93.3612 140.713 91.5161 142.032 90.5604C143.351 89.6076 145.196 89.8967 146.151 91.2167C150.915 97.7887 163.587 97.0631 163.717 97.0543C165.361 96.9451 166.743 98.1796 166.851 99.8019C166.957 101.427 165.727 102.833 164.103 102.94C163.985 102.949 163.391 102.985 162.453 102.985C158.191 102.986 146.858 102.238 141.376 94.6797ZM150.244 104.406C155.293 104.406 159.388 108.502 159.388 113.552C159.388 115.562 158.732 117.415 157.636 118.925C155.984 116.552 153.24 114.993 150.128 114.993C147.086 114.993 144.399 116.486 142.737 118.77C141.708 117.289 141.1 115.493 141.1 113.554C141.098 108.504 145.196 104.406 150.244 104.406ZM99.5439 141.814C94.2344 141.814 94.2344 135.923 94.2344 135.923C94.2358 130.855 100.952 124.81 100.952 124.81C101.598 128.861 103.194 131.217 103.194 131.217C104.991 133.897 104.991 136.391 104.991 136.391C104.991 141.862 99.5439 141.814 99.5439 141.814Z" fill="black"/>
</g>
</g>
</svg>
