<svg width="217" height="290" viewBox="0 0 217 290" fill="none" xmlns="http://www.w3.org/2000/svg">
<path d="M0 0H217V290H0V0Z" fill="#EDEDED"/>
<path d="M108.5 207C142.466 207 170 179.466 170 145.5C170 111.534 142.466 84 108.5 84C74.5345 84 47 111.534 47 145.5C47 179.466 74.5345 207 108.5 207Z" fill="#E91919"/>
<path d="M83.7696 161.202V152.915H69V148.897L82.3128 128.552H89.5967V148.243H93.8172V152.915H89.5967V161.202H83.7696ZM83.7696 148.243V139.351C83.7696 137.492 83.8196 135.584 83.9695 133.673H83.7696C82.7664 135.734 81.9112 137.39 80.9079 139.199L74.9309 148.141L74.8809 148.241H83.7696V148.243Z" fill="white"/>
<path d="M120.137 144.676C120.137 155.173 116.019 161.754 108.233 161.754C100.697 161.754 96.6788 154.922 96.6289 144.978C96.6289 134.83 100.949 128 108.585 128C116.47 127.998 120.137 135.03 120.137 144.676ZM102.858 144.978C102.808 152.915 105.018 157.032 108.433 157.032C112.05 157.032 113.958 152.612 113.958 144.776C113.958 137.19 112.152 132.72 108.433 132.72C105.118 132.72 102.806 136.789 102.858 144.978Z" fill="white"/>
<path d="M137.617 161.202V152.915H122.847V148.897L136.16 128.552H143.444V148.243H147.664V152.915H143.444V161.202H137.617ZM137.617 148.243V139.351C137.617 137.492 137.667 135.584 137.817 133.673H137.617C136.613 135.734 135.758 137.39 134.755 139.199L128.778 148.141L128.728 148.241H137.617V148.243Z" fill="white"/>
</svg>
